<svg width="1074" height="500" viewBox="0 0 1074 807" fill="none" xmlns="http://www.w3.org/2000/svg">
    <path d="M1041.93 806.614C1059.21 806.614 1073.32 792.756 1073.58 775.472C1074.9 689.324 1081.84 562.256 919.607 527.113C788.317 498.673 866.157 265.353 512.578 280.43C258.765 291.251 326.194 505.186 128.848 523.002C-2.46951 534.858 -3.60589 700.941 1.43943 777.041C2.54348 793.686 16.3516 806.617 33.0342 806.617H1041.93V806.614Z" fill="#B5DFEA"/>
    <path opacity="0.55" d="M919.607 527.113C788.317 498.673 866.157 265.353 512.578 280.43C452.21 283.003 410.038 297.08 378.132 317.264C388.882 315.856 400.29 314.864 412.45 314.347C766.029 299.27 688.189 532.591 819.479 561.03C979.986 595.798 974.906 720.54 973.499 806.617H1041.93C1059.21 806.617 1073.32 792.759 1073.58 775.474C1074.9 689.326 1081.84 562.256 919.607 527.113Z" fill="#90CEDD"/>
    <path d="M362.976 -172H357.394V235.303H362.976V-172Z" fill="#79C9E8"/>
    <path d="M763.254 -172H757.672V297.871H763.254V-172Z" fill="#79C9E8"/>
    <path d="M762.72 270.481L347.589 222.027C329.847 219.955 313.786 232.659 311.717 250.401L280.734 515.856C278.663 533.598 291.367 549.659 309.109 551.728L724.24 600.181C741.981 602.253 758.042 589.549 760.111 571.807L791.094 306.352C793.163 288.613 780.462 272.552 762.72 270.481Z" fill="#D7F0F9"/>
    <path d="M788.026 332.628L791.092 306.352C793.163 288.61 780.459 272.549 762.717 270.481L347.589 222.027C329.847 219.955 313.786 232.659 311.717 250.401L308.651 276.677L788.026 332.628Z" fill="#0582C1"/>
    <path d="M642.368 540.964L440.941 512.642C437.125 512.105 433.679 510.075 431.36 506.997C429.041 503.919 428.04 500.047 428.577 496.231L446.11 371.538C446.646 367.722 448.676 364.276 451.754 361.957C454.832 359.638 458.704 358.637 462.52 359.173L476.908 361.197L475.559 370.788L461.171 368.765C459.9 368.586 458.609 368.92 457.583 369.693C456.557 370.466 455.88 371.615 455.701 372.887L438.168 497.58C437.989 498.852 438.323 500.142 439.096 501.168C439.869 502.194 441.018 502.871 442.29 503.05L643.717 531.372C644.989 531.551 646.279 531.217 647.305 530.444C648.331 529.672 649.008 528.523 649.187 527.251L666.72 402.558C666.899 401.286 666.565 399.995 665.792 398.969C665.019 397.943 663.87 397.267 662.598 397.088L648.211 395.065L649.559 385.473L663.947 387.496C667.763 388.033 671.209 390.063 673.528 393.141C675.847 396.218 676.848 400.091 676.312 403.907L658.779 528.599C658.242 532.415 656.212 535.862 653.134 538.181C650.056 540.499 646.184 541.501 642.368 540.964Z" fill="#79C9E8"/>
    <path d="M499.166 515.938L508.758 517.287L506.06 536.47L496.469 535.121L499.166 515.938Z" fill="#79C9E8"/>
    <path d="M484.179 552.956L474.588 551.607L475.936 542.016C476.473 538.2 478.503 534.753 481.581 532.435C484.659 530.116 488.531 529.115 492.347 529.651L540.306 536.395L538.957 545.986L490.998 539.243C489.726 539.064 488.436 539.398 487.41 540.171C486.384 540.944 485.707 542.092 485.528 543.364L484.179 552.956Z" fill="#79C9E8"/>
    <path d="M575.9 526.727L585.492 528.076L582.794 547.26L573.203 545.911L575.9 526.727Z" fill="#79C9E8"/>
    <path d="M599.281 569.14L589.689 567.792L591.037 558.2C591.216 556.928 590.883 555.637 590.11 554.611C589.337 553.585 588.188 552.909 586.916 552.73L562.937 549.358L564.285 539.766L588.265 543.138C592.08 543.675 595.527 545.705 597.846 548.783C600.164 551.86 601.166 555.733 600.629 559.549L599.281 569.14Z" fill="#79C9E8"/>
    <path d="M465.67 545.463L609.547 565.693L608.198 575.285L464.322 555.055L465.67 545.463Z" fill="#79C9E8"/>
    <path d="M621.086 518.409L467.618 496.83C463.802 496.293 460.356 494.263 458.037 491.185C455.718 488.108 454.717 484.235 455.253 480.419L475.484 336.543C476.02 332.727 478.051 329.281 481.128 326.962C484.206 324.643 488.079 323.642 491.894 324.178L645.362 345.757C649.178 346.294 652.625 348.324 654.943 351.402C657.262 354.479 658.264 358.352 657.727 362.168L637.497 506.044C636.96 509.86 634.93 513.306 631.852 515.625C628.774 517.944 624.902 518.945 621.086 518.409ZM490.546 333.77C489.274 333.591 487.983 333.925 486.957 334.698C485.931 335.471 485.254 336.62 485.075 337.891L464.845 481.768C464.666 483.04 465 484.331 465.773 485.356C466.546 486.382 467.695 487.059 468.967 487.238L622.435 508.817C623.707 508.996 624.997 508.662 626.023 507.889C627.049 507.116 627.726 505.967 627.905 504.696L648.135 360.819C648.314 359.547 647.98 358.256 647.207 357.231C646.434 356.205 645.286 355.528 644.014 355.349L490.546 333.77Z" fill="#79C9E8"/>
    <path d="M478.256 351.605L650.908 375.881L649.559 385.473L476.908 361.197L478.256 351.605Z" fill="#79C9E8"/>
    <path d="M494.667 339.24L504.259 340.589L502.91 350.181L493.318 348.832L494.667 339.24Z" fill="#79C9E8"/>
    <path d="M513.851 341.938L523.442 343.286L522.094 352.878L512.502 351.529L513.851 341.938Z" fill="#79C9E8"/>
    <path d="M533.034 344.635L542.626 345.984L541.277 355.575L531.685 354.227L533.034 344.635Z" fill="#79C9E8"/>
    <path d="M438.093 463.334L462.072 466.706L460.724 476.298L436.744 472.926L438.093 463.334Z" fill="#79C9E8"/>
    <path d="M634.724 490.982L658.703 494.354L657.354 503.946L633.375 500.574L634.724 490.982Z" fill="#79C9E8"/>
    <path d="M489.947 372.811L499.539 374.16L498.19 383.752L488.598 382.403L489.947 372.811Z" fill="#79C9E8"/>
    <path d="M624.231 391.693L633.823 393.042L632.474 402.633L622.883 401.285L624.231 391.693Z" fill="#79C9E8"/>
    <path d="M610.744 487.611L620.336 488.959L618.987 498.551L609.396 497.202L610.744 487.611Z" fill="#79C9E8"/>
    <path d="M476.46 468.729L486.052 470.078L484.703 479.669L475.111 478.321L476.46 468.729Z" fill="#79C9E8"/>
    <path d="M518.199 450.144L508.607 448.795L509.956 439.204L495.568 437.181C494.664 437.054 493.815 436.674 493.117 436.086C492.42 435.497 491.903 434.724 491.626 433.854C491.349 432.985 491.323 432.055 491.552 431.171C491.781 430.288 492.254 429.487 492.918 428.861L515.473 407.579C516.203 406.89 517.129 406.444 518.124 406.305C519.118 406.165 520.13 406.337 521.022 406.799C521.914 407.26 522.64 407.986 523.101 408.878C523.562 409.77 523.734 410.783 523.593 411.777L520.896 430.961L525.692 431.635L524.343 441.227L519.547 440.552L518.199 450.144ZM506.897 428.992L511.304 429.612L512.079 424.102L506.897 428.992Z" fill="#79C9E8"/>
    <path d="M604.524 462.282L594.933 460.934L596.281 451.342L581.894 449.319C580.99 449.192 580.14 448.813 579.443 448.224C578.746 447.636 578.229 446.862 577.952 445.992C577.675 445.123 577.649 444.193 577.878 443.309C578.106 442.426 578.58 441.625 579.244 440.999L601.799 419.717C602.529 419.028 603.455 418.583 604.449 418.443C605.443 418.303 606.456 418.476 607.348 418.937C608.24 419.398 608.966 420.125 609.427 421.016C609.887 421.908 610.059 422.921 609.919 423.915L607.222 443.099L612.018 443.773L610.669 453.365L605.873 452.691L604.524 462.282ZM593.223 441.13L597.63 441.75L598.405 436.24L593.223 441.13Z" fill="#79C9E8"/>
    <path d="M556.566 455.539L546.974 454.19C543.158 453.654 539.712 451.623 537.393 448.546C535.074 445.468 534.073 441.595 534.609 437.78L536.632 423.392C537.169 419.576 539.199 416.13 542.277 413.811C545.354 411.492 549.227 410.491 553.043 411.027L562.635 412.376C566.451 412.913 569.897 414.943 572.216 418.021C574.535 421.098 575.536 424.971 574.999 428.787L572.976 443.174C572.44 446.99 570.409 450.437 567.332 452.755C564.254 455.074 560.381 456.076 556.566 455.539ZM551.694 420.619C550.422 420.44 549.131 420.774 548.106 421.547C547.08 422.32 546.403 423.469 546.224 424.741L544.201 439.128C544.022 440.4 544.356 441.691 545.129 442.717C545.902 443.743 547.051 444.42 548.323 444.599L557.914 445.947C559.186 446.126 560.477 445.792 561.503 445.019C562.529 444.246 563.206 443.098 563.385 441.826L565.408 427.438C565.586 426.166 565.253 424.875 564.48 423.849C563.707 422.824 562.558 422.147 561.286 421.968L551.694 420.619Z" fill="#79C9E8"/>
    <path d="M495.643 471.426L601.153 486.262L599.804 495.854L494.295 481.018L495.643 471.426Z" fill="#79C9E8"/>
    <path d="M509.13 375.509L614.64 390.344L613.291 399.936L507.782 385.1L509.13 375.509Z" fill="#79C9E8"/>
    <path d="M357.588 258.709C357.031 263.476 352.714 266.89 347.947 266.335C343.18 265.778 339.766 261.462 340.323 256.695C340.88 251.928 345.195 248.514 349.964 249.071C354.733 249.628 358.145 253.942 357.588 258.709Z" fill="white"/>
    <path d="M399.228 263.57C398.671 268.337 394.355 271.751 389.588 271.197C384.821 270.64 381.407 266.323 381.961 261.556C382.518 256.789 386.835 253.375 391.602 253.932C396.371 254.487 399.785 258.804 399.228 263.57Z" fill="#79C9E8"/>
    <path d="M442.393 268.608C441.836 273.375 437.52 276.789 432.753 276.232C427.986 275.675 424.572 271.358 425.129 266.592C425.686 261.825 430.002 258.411 434.769 258.968C439.536 259.525 442.95 263.841 442.393 268.608Z" fill="#FFBF4D"/>
    <path d="M275.393 570.976C275.393 570.976 269.786 595.837 270.721 621.258C271.559 644.015 268.851 793.604 268.851 793.604H287.123C287.123 793.604 313.132 676.445 314.105 667.193C315.077 657.94 328.159 565.416 328.159 565.416L275.393 570.976Z" fill="#00668E"/>
    <path d="M287.543 564.153C287.543 564.153 291.748 596.116 298.897 618.826C306.046 641.536 341.186 793.602 341.186 793.602H359.458C359.458 793.602 356.093 676.443 354.83 667.19C353.569 657.938 344.317 565.414 344.317 565.414L287.543 564.153Z" fill="#0582C1"/>
    <path d="M342.681 793.574V806.326H377.463C379.44 806.326 380.211 803.764 378.567 802.668C373.48 799.281 365.334 794.614 357.759 793.572H342.681V793.574Z" fill="#0582C1"/>
    <path d="M269.783 793.574V806.326H304.566C306.543 806.326 307.314 803.764 305.67 802.668C300.582 799.281 292.436 794.614 284.862 793.572H269.783V793.574Z" fill="#0582C1"/>
    <path d="M332.538 415.472C332.538 415.472 344.501 397.307 330.765 395.534C320.219 394.174 315.88 397.315 315.88 397.315C315.88 397.315 303.738 395.977 297.091 401.736C292.538 405.682 275.823 436.295 302.85 447.37C329.877 458.448 324.118 430.091 324.118 430.091L332.538 415.472Z" fill="#00668E"/>
    <path d="M330.767 395.534C320.221 394.174 315.882 397.315 315.882 397.315C315.882 397.315 303.74 395.977 297.093 401.736C292.54 405.682 275.826 436.295 302.852 447.37C315.556 452.577 321.015 449.068 323.233 443.891C297.588 451.105 294.811 420.199 299.038 411.406C303.335 402.469 313.644 406.595 313.644 406.595C317.677 396.444 330.819 397.543 336.235 398.334C335.25 396.924 333.54 395.892 330.767 395.534Z" fill="#05556D"/>
    <path d="M315.701 424.332C315.701 424.332 312.158 420.788 309.499 424.332C306.841 427.877 308.614 435.852 313.043 436.295C313.043 436.295 311.712 447.815 302.853 447.37V456.675H323.676V449.585C323.676 449.585 336.524 444.269 336.081 433.636C335.639 423.004 332.538 415.472 332.538 415.472C332.538 415.472 325.448 423.446 315.701 424.332Z" fill="#F98D3D"/>
    <path d="M318.889 452.567C320.95 453.425 320.59 454.725 320.682 456.677H323.678V449.588C323.678 449.588 318.633 451.192 311.243 446.982C311.243 446.982 315.542 451.172 318.889 452.567Z" fill="#ED701B"/>
    <path d="M323.151 407.375C323.151 407.375 312.356 403.076 311.096 406.301C310.27 408.412 312.371 410.233 315.251 412.068L312.71 412.485C312.145 412.58 311.941 413.301 312.386 413.659C313.095 414.231 315.052 414.616 319.132 414.758L323.151 407.375Z" fill="#F98D3D"/>
    <path d="M400.225 434.41C379.644 419.157 323.429 406.963 323.429 406.963L318.797 415.405C318.797 415.405 369.829 435.181 366.46 438.127C364.483 439.868 339.542 451.294 331.103 455.138C329.29 455.961 327.313 456.364 325.299 456.329L299.463 456.182C299.463 456.182 280.824 453.967 266.155 470.814C253.046 485.902 230.761 520.839 230.761 520.839L268.299 576.046L272.456 582.144L272.494 582.069L272.456 582.581C272.456 582.581 273.792 582.728 276.154 582.947C288.222 584.063 326.893 587.122 347.365 582.783L347.932 582.653L346.962 492.089C379.646 466.216 395.247 446.239 400.832 439.957C402.294 438.291 402.021 435.748 400.225 434.41ZM274.267 557.917L270.604 549.915L258.939 524.427L278.295 502.746L274.816 550.318L274.267 557.917Z" fill="#FFBF4D"/>
    <path d="M270.604 549.915L274.267 557.917L272.489 582.069L272.454 582.141L268.296 576.044L270.604 549.915Z" fill="#EFAA3A"/>
    <path opacity="0.29" d="M338.227 488.834C334.751 491.358 335.631 513.757 334.773 527.759C333.336 551.21 331.936 571.503 332.968 584.588C338.267 584.24 343.195 583.665 347.363 582.783L347.93 582.653L346.96 492.089C379.644 466.216 395.245 446.239 400.83 439.957C402.294 438.291 402.021 435.745 400.226 434.41C400.226 434.41 374.39 462.578 338.227 488.834Z" fill="#F98D2B"/>
    <path d="M354.833 667.19C353.923 660.514 348.852 610.486 346.1 583.143L332.968 584.588C332.968 584.588 352.125 742.072 353.383 793.602H359.46C359.46 793.602 356.096 676.443 354.833 667.19Z" fill="#00668E"/>
    <path d="M270.639 426.915L266.68 419.816C268.664 416.074 269.798 411.812 269.798 407.281C269.798 392.476 257.795 380.473 242.99 380.473C228.185 380.473 216.182 392.476 216.182 407.281C216.182 422.086 228.185 434.089 242.99 434.089C250.445 434.089 257.184 431.043 262.043 426.132L270.639 426.915Z" fill="#0582C1"/>
    <path d="M224.571 409.43C224.571 408.98 224.632 408.6 224.754 408.287C224.876 407.975 225.033 407.713 225.223 407.503C225.418 407.293 225.633 407.13 225.868 407.013C226.107 406.896 226.341 406.808 226.571 406.749C226.8 406.69 227.013 406.654 227.208 406.639C227.408 406.625 227.564 406.617 227.677 406.617C227.789 406.617 227.943 406.625 228.138 406.639C228.333 406.654 228.541 406.69 228.761 406.749C228.985 406.808 229.21 406.896 229.435 407.013C229.664 407.13 229.869 407.293 230.05 407.503C230.235 407.713 230.387 407.975 230.504 408.287C230.621 408.6 230.68 408.98 230.68 409.43V411.246C230.68 411.695 230.621 412.076 230.504 412.389C230.387 412.701 230.235 412.962 230.05 413.172C229.869 413.382 229.664 413.546 229.435 413.663C229.21 413.78 228.985 413.868 228.761 413.927C228.541 413.985 228.333 414.022 228.138 414.037C227.943 414.051 227.789 414.059 227.677 414.059C227.564 414.059 227.408 414.051 227.208 414.037C227.013 414.022 226.8 413.985 226.571 413.927C226.341 413.868 226.107 413.78 225.868 413.663C225.633 413.546 225.418 413.382 225.223 413.172C225.033 412.962 224.876 412.701 224.754 412.389C224.632 412.076 224.571 411.695 224.571 411.246V409.43ZM226.827 411.759C226.832 411.9 226.866 412.025 226.93 412.132C226.983 412.23 227.066 412.318 227.179 412.396C227.296 412.469 227.462 412.506 227.677 412.506C227.882 412.506 228.038 412.469 228.146 412.396C228.258 412.318 228.341 412.23 228.395 412.132C228.453 412.025 228.487 411.9 228.497 411.759V409.107C228.487 408.961 228.453 408.827 228.395 408.705C228.341 408.607 228.258 408.517 228.146 408.434C228.038 408.346 227.882 408.302 227.677 408.302C227.462 408.302 227.296 408.346 227.179 408.434C227.066 408.517 226.983 408.607 226.93 408.705C226.866 408.827 226.832 408.961 226.827 409.107V411.759ZM231.822 409.43C231.822 408.98 231.883 408.6 232.005 408.287C232.127 407.975 232.284 407.713 232.474 407.503C232.669 407.293 232.884 407.13 233.119 407.013C233.358 406.896 233.592 406.808 233.822 406.749C234.051 406.69 234.264 406.654 234.459 406.639C234.659 406.625 234.815 406.617 234.928 406.617C235.04 406.617 235.194 406.625 235.389 406.639C235.584 406.654 235.792 406.69 236.012 406.749C236.236 406.808 236.461 406.896 236.686 407.013C236.915 407.13 237.12 407.293 237.301 407.503C237.486 407.713 237.638 407.975 237.755 408.287C237.872 408.6 237.931 408.98 237.931 409.43V411.246C237.931 411.695 237.872 412.076 237.755 412.389C237.638 412.701 237.486 412.962 237.301 413.172C237.12 413.382 236.915 413.546 236.686 413.663C236.461 413.78 236.236 413.868 236.012 413.927C235.792 413.985 235.584 414.022 235.389 414.037C235.194 414.051 235.04 414.059 234.928 414.059C234.815 414.059 234.659 414.051 234.459 414.037C234.264 414.022 234.051 413.985 233.822 413.927C233.592 413.868 233.358 413.78 233.119 413.663C232.884 413.546 232.669 413.382 232.474 413.172C232.284 412.962 232.127 412.701 232.005 412.389C231.883 412.076 231.822 411.695 231.822 411.246V409.43ZM234.078 411.759C234.083 411.9 234.117 412.025 234.181 412.132C234.234 412.23 234.317 412.318 234.43 412.396C234.547 412.469 234.713 412.506 234.928 412.506C235.133 412.506 235.289 412.469 235.396 412.396C235.509 412.318 235.592 412.23 235.646 412.132C235.704 412.025 235.738 411.9 235.748 411.759V409.107C235.738 408.961 235.704 408.827 235.646 408.705C235.592 408.607 235.509 408.517 235.396 408.434C235.289 408.346 235.133 408.302 234.928 408.302C234.713 408.302 234.547 408.346 234.43 408.434C234.317 408.517 234.234 408.607 234.181 408.705C234.117 408.827 234.083 408.961 234.078 409.107V411.759ZM239.469 408.331C239.469 408.126 239.476 407.926 239.491 407.73C239.505 407.53 239.549 407.352 239.623 407.196C239.696 407.04 239.806 406.915 239.952 406.822C240.099 406.725 240.304 406.676 240.567 406.676C240.836 406.676 241.046 406.722 241.197 406.815C241.349 406.903 241.461 407.013 241.534 407.145C241.607 407.271 241.651 407.406 241.666 407.547C241.686 407.689 241.695 407.809 241.695 407.906C241.739 407.765 241.8 407.621 241.878 407.474C241.961 407.328 242.066 407.196 242.193 407.079C242.32 406.961 242.472 406.866 242.647 406.793C242.828 406.715 243.038 406.676 243.277 406.676C243.546 406.676 243.814 406.72 244.083 406.808C244.352 406.896 244.593 407.042 244.808 407.247C245.023 407.452 245.196 407.721 245.328 408.053C245.465 408.38 245.533 408.785 245.533 409.269V411.393C245.533 411.881 245.465 412.291 245.328 412.623C245.196 412.95 245.023 413.216 244.808 413.421C244.593 413.622 244.352 413.766 244.083 413.854C243.814 413.941 243.546 413.985 243.277 413.985C243.038 413.985 242.828 413.949 242.647 413.875C242.472 413.802 242.32 413.707 242.193 413.59C242.066 413.473 241.961 413.341 241.878 413.194C241.8 413.048 241.739 412.901 241.695 412.755V415.26C241.695 415.475 241.683 415.682 241.659 415.882C241.639 416.083 241.59 416.258 241.512 416.41C241.439 416.566 241.327 416.69 241.175 416.783C241.024 416.881 240.821 416.93 240.567 416.93C240.323 416.93 240.128 416.881 239.981 416.783C239.835 416.69 239.723 416.566 239.645 416.41C239.571 416.258 239.522 416.083 239.498 415.882C239.479 415.682 239.469 415.475 239.469 415.26V408.331ZM243.277 409.459C243.277 409.327 243.272 409.198 243.263 409.071C243.253 408.944 243.226 408.829 243.182 408.727C243.138 408.624 243.072 408.543 242.984 408.485C242.901 408.421 242.784 408.39 242.633 408.39C242.442 408.39 242.286 408.434 242.164 408.521C242.047 408.604 241.954 408.736 241.886 408.917C241.817 409.093 241.769 409.317 241.739 409.591C241.715 409.864 241.7 410.187 241.695 410.558C241.695 410.714 241.708 410.892 241.732 411.092C241.761 411.288 241.81 411.473 241.878 411.649C241.947 411.825 242.042 411.974 242.164 412.096C242.286 412.213 242.442 412.271 242.633 412.271C242.784 412.271 242.901 412.242 242.984 412.184C243.072 412.12 243.138 412.04 243.182 411.942C243.226 411.844 243.253 411.734 243.263 411.612C243.272 411.485 243.277 411.358 243.277 411.231V409.459ZM249.107 408.595C249.107 408.692 249.139 408.783 249.203 408.866C249.266 408.949 249.352 409.029 249.459 409.107C249.571 409.181 249.698 409.254 249.84 409.327C249.986 409.4 250.138 409.474 250.294 409.547C250.533 409.664 250.777 409.791 251.026 409.928C251.275 410.06 251.502 410.216 251.708 410.396C251.913 410.577 252.079 410.787 252.206 411.026C252.337 411.261 252.403 411.539 252.403 411.861C252.403 412.154 252.359 412.413 252.271 412.638C252.188 412.862 252.076 413.058 251.935 413.224C251.793 413.385 251.627 413.519 251.437 413.626C251.251 413.734 251.053 413.819 250.843 413.883C250.638 413.946 250.428 413.99 250.213 414.015C249.999 414.044 249.796 414.059 249.605 414.059C249.229 414.059 248.902 414.027 248.624 413.963C248.346 413.9 248.106 413.817 247.906 413.714C247.706 413.607 247.54 413.487 247.408 413.355C247.281 413.219 247.181 413.077 247.108 412.931C247.035 412.784 246.983 412.64 246.954 412.499C246.925 412.352 246.91 412.218 246.91 412.096C246.91 411.803 246.991 411.588 247.152 411.451C247.318 411.314 247.569 411.246 247.906 411.246C248.15 411.246 248.351 411.312 248.507 411.444C248.663 411.576 248.746 411.788 248.756 412.081C248.761 412.179 248.788 412.257 248.836 412.315C248.89 412.374 248.956 412.423 249.034 412.462C249.117 412.496 249.208 412.521 249.305 412.535C249.403 412.545 249.498 412.55 249.591 412.55C249.781 412.55 249.935 412.501 250.052 412.403C250.174 412.301 250.235 412.169 250.235 412.008C250.235 411.871 250.194 411.744 250.111 411.627C250.033 411.505 249.928 411.393 249.796 411.29C249.664 411.188 249.513 411.09 249.342 410.997C249.176 410.899 249.005 410.802 248.829 410.704C248.609 410.587 248.387 410.462 248.163 410.331C247.943 410.199 247.743 410.052 247.562 409.891C247.381 409.73 247.235 409.549 247.123 409.349C247.01 409.144 246.954 408.912 246.954 408.653C246.954 408.272 247.015 407.955 247.137 407.701C247.264 407.442 247.447 407.235 247.687 407.079C247.926 406.917 248.216 406.803 248.558 406.734C248.905 406.666 249.298 406.627 249.737 406.617H249.854C250.25 406.617 250.584 406.651 250.858 406.72C251.136 406.788 251.366 406.878 251.546 406.991C251.732 407.098 251.876 407.22 251.979 407.357C252.086 407.494 252.164 407.633 252.213 407.774C252.267 407.911 252.298 408.043 252.308 408.17C252.323 408.297 252.33 408.404 252.33 408.492C252.33 408.639 252.298 408.761 252.235 408.858C252.176 408.951 252.096 409.027 251.993 409.085C251.896 409.139 251.783 409.178 251.656 409.203C251.529 409.222 251.397 409.234 251.261 409.239C251.144 409.239 251.036 409.22 250.938 409.181C250.846 409.142 250.765 409.093 250.697 409.034C250.628 408.976 250.575 408.91 250.536 408.836C250.501 408.763 250.484 408.692 250.484 408.624C250.475 408.438 250.399 408.297 250.257 408.199C250.121 408.102 249.952 408.053 249.752 408.053C249.669 408.053 249.588 408.062 249.51 408.082C249.437 408.097 249.369 408.126 249.305 408.17C249.247 408.209 249.198 408.263 249.159 408.331C249.125 408.399 249.107 408.487 249.107 408.595ZM256.344 412.784C256.344 413.199 256.239 413.507 256.029 413.707C255.819 413.902 255.523 414 255.143 414C254.752 414 254.452 413.902 254.242 413.707C254.032 413.507 253.927 413.199 253.927 412.784C253.927 412.364 254.032 412.059 254.242 411.869C254.452 411.678 254.752 411.583 255.143 411.583C255.548 411.583 255.848 411.678 256.043 411.869C256.244 412.059 256.344 412.364 256.344 412.784ZM260.724 412.784C260.724 413.199 260.619 413.507 260.409 413.707C260.199 413.902 259.903 414 259.522 414C259.132 414 258.832 413.902 258.622 413.707C258.412 413.507 258.307 413.199 258.307 412.784C258.307 412.364 258.412 412.059 258.622 411.869C258.832 411.678 259.132 411.583 259.522 411.583C259.928 411.583 260.228 411.678 260.423 411.869C260.624 412.059 260.724 412.364 260.724 412.784Z" fill="white"/>
    <path d="M167.853 749.273C167.853 749.273 162.221 744.014 166 724.061C169.78 704.109 179.368 684.947 174.663 663.301C169.959 641.655 133.075 587.075 132.951 583.447C132.826 579.816 121.572 646.942 140.647 673.384C159.721 699.827 162.017 709 161.169 722.905C160.321 736.81 161.365 748.01 163.456 751.242L167.853 749.273Z" fill="#79C9E8"/>
    <path d="M164.361 709.142C162.143 718.041 160.806 740.361 164.349 745.702C164.68 746.202 165.155 745.916 165.747 744.996C164.667 741.306 163.959 734.841 166 724.061C169.78 704.109 179.368 684.947 174.663 663.301C169.959 641.655 133.075 587.077 132.951 583.447C132.951 583.447 138.508 628.919 157.227 660.22C170.63 682.625 166.58 700.24 164.361 709.142Z" fill="#49B4D6"/>
    <path d="M174.579 747.886C174.579 747.886 163.742 720.831 182.108 697.408C200.472 673.984 229.844 643.906 230.428 631.99C230.428 631.99 237.975 688.56 214.074 704.576C190.17 720.59 173.408 723.146 177.553 747.784L174.579 747.886Z" fill="#79C9E8"/>
    <path d="M200.377 693.203C173.724 712.603 171.545 734.95 175.68 745.314C176.001 746.12 176.61 746.612 177.414 746.876C173.84 723.094 190.466 720.389 214.069 704.576C237.972 688.563 230.423 631.99 230.423 631.99C230.423 631.99 227.031 673.805 200.377 693.203Z" fill="#49B4D6"/>
    <path d="M156.757 748.495C156.757 748.495 160.234 734.169 158.384 718.703C156.534 703.236 140.378 694.538 125.282 678.201C117.516 669.796 115.219 625.351 120.033 621.221C120.033 621.221 93.3815 653.519 97.4918 677.167C101.602 700.814 145.08 716.181 149.104 727.61C153.127 739.036 152.794 748.629 152.794 748.629L156.757 748.495Z" fill="#79C9E8"/>
    <path d="M111.026 633.932C102.216 657.786 111.248 686.675 140.508 704.619C162.049 717.83 155.188 745.299 155.188 745.299L158.707 734.463C159.018 729.778 159.053 724.32 158.381 718.703C156.531 703.236 140.376 694.538 125.28 678.201C117.79 670.095 115.388 628.474 119.548 621.822C118.33 623.359 114.881 627.827 111.026 633.932Z" fill="#49B4D6"/>
    <path d="M119.551 621.822C119.851 621.442 120.033 621.221 120.033 621.221C119.864 621.367 119.705 621.579 119.551 621.822Z" fill="#49B4D6"/>
    <path d="M180.156 746.704C180.156 746.704 186.403 723.527 201.852 720.406C217.301 717.285 235.041 694.458 236 689.98C236 689.98 233.394 733.036 180.156 746.704Z" fill="#79C9E8"/>
    <path d="M200.969 728.07C191.503 732.804 187.566 739.17 186.169 744.949C233.569 729.706 236 689.983 236 689.983C235.811 690.868 234.946 692.487 233.593 694.511C228.943 702.654 217.689 719.71 200.969 728.07Z" fill="#49B4D6"/>
    <path d="M213.586 738.17H132.784L142.38 798.52C143.109 803.098 147.055 806.467 151.69 806.467H194.681C199.316 806.467 203.262 803.098 203.99 798.52L213.586 738.17Z" fill="#FFBF4D"/>
    <path d="M212 748.154L213.586 738.17H132.784L134.373 748.154H212Z" fill="#FF9F50"/>
    <path d="M194.012 738.17L184.416 798.52C183.687 803.098 179.741 806.465 175.106 806.465H194.681C199.316 806.465 203.262 803.095 203.99 798.52L213.586 738.17H194.012Z" fill="#FF9F50"/>
    <path d="M770.903 630.543H405.713V704.793H770.903V630.543Z" fill="#FFBF4D"/>
    <path opacity="0.29" d="M770.903 630.543H405.713V648.566H770.903V630.543Z" fill="#F98D2B"/>
    <path d="M437.467 630.543H470.798L461.863 648.573H428.516L437.467 630.543Z" fill="#F77E2D"/>
    <path d="M512.56 630.543H545.891L536.956 648.573H503.626L512.56 630.543Z" fill="#F77E2D"/>
    <path d="M587.653 630.543H620.986L612.052 648.573H578.721L587.653 630.543Z" fill="#F77E2D"/>
    <path d="M662.748 630.543H696.061L687.127 648.573H653.814L662.748 630.543Z" fill="#F77E2D"/>
    <path d="M770.903 630.543V631.045L762.202 648.573H728.907L737.841 630.543H770.903Z" fill="#F77E2D"/>
    <path d="M476.917 704.8H451.173V806.326H476.917V704.8Z" fill="#79C9E8"/>
    <path d="M476.917 704.8H471.069V806.326H476.917V704.8Z" fill="#49B4D6"/>
    <path d="M727.445 704.8H701.701V806.326H727.445V704.8Z" fill="#79C9E8"/>
    <path d="M727.445 704.8H719.833V806.326H727.445V704.8Z" fill="#49B4D6"/>
    <path d="M476.917 704.721H451.173V717.507H476.917V704.721Z" fill="#49B4D6"/>
    <path d="M727.445 704.721H701.701V717.507H727.445V704.721Z" fill="#49B4D6"/>
    <path d="M476.917 618.943H451.173V630.471H476.917V618.943Z" fill="#79C9E8"/>
    <path d="M476.917 618.943H471.069V630.471H476.917V618.943Z" fill="#49B4D6"/>
    <path d="M727.445 618.943H701.701V630.471H727.445V618.943Z" fill="#79C9E8"/>
    <path d="M727.445 618.943H719.833V630.471H727.445V618.943Z" fill="#49B4D6"/>
    <path d="M476.917 629.029H451.173V630.481H476.917V629.029Z" fill="#49B4D6"/>
    <path d="M727.445 629.029H701.701V630.481H727.445V629.029Z" fill="#49B4D6"/>
    <path d="M470.798 630.543L433.969 704.795H405.713V694.55L437.467 630.543H470.798Z" fill="#0582C1"/>
    <path d="M512.56 630.543L475.731 704.795H509.062L545.891 630.543H512.56Z" fill="#0582C1"/>
    <path d="M620.986 630.543L584.157 704.795H550.824L587.653 630.543H620.986Z" fill="#0582C1"/>
    <path d="M696.061 630.543L659.25 704.795H625.919L662.748 630.543H696.061Z" fill="#0582C1"/>
    <path d="M737.841 630.543L701.012 704.795H734.325L770.903 631.045L737.841 630.543Z" fill="#0582C1"/>
    <path d="M470.798 630.543L461.863 648.573H428.516L437.467 630.543H470.798Z" fill="#00668E"/>
    <path d="M545.891 630.543L536.956 648.573H503.626L512.56 630.543H545.891Z" fill="#00668E"/>
    <path d="M620.986 630.543L612.052 648.573H578.721L587.653 630.543H620.986Z" fill="#00668E"/>
    <path d="M696.061 630.543L687.127 648.573H653.814L662.748 630.543H696.061Z" fill="#00668E"/>
    <path d="M770.903 631.045L762.202 648.573H728.907L737.841 630.543L770.903 631.045Z" fill="#00668E"/>
    <path opacity="0.55" d="M764.612 662.667H415.891V699.807H764.612V662.667Z" fill="url(#paint0_linear_2_182)"/>
    <path d="M467.018 625.5C479.53 623.464 488.023 611.67 485.987 599.158C483.951 586.646 472.158 578.153 459.645 580.189C447.133 582.225 438.64 594.019 440.676 606.531C442.712 619.043 454.506 627.536 467.018 625.5Z" fill="#FFBF4D"/>
    <path d="M473.777 602.83C473.777 597.086 469.119 592.428 463.375 592.428C457.631 592.428 452.974 597.086 452.974 602.83C452.974 608.574 457.631 613.231 463.375 613.231C469.119 613.231 473.777 608.574 473.777 602.83Z" fill="#0582C1"/>
    <path d="M718.065 625.511C730.577 623.475 739.07 611.681 737.034 599.169C734.998 586.657 723.204 578.164 710.692 580.2C698.18 582.236 689.687 594.029 691.723 606.542C693.759 619.054 705.552 627.547 718.065 625.511Z" fill="#FFBF4D"/>
    <path d="M724.824 602.83C724.824 597.086 720.166 592.428 714.422 592.428C708.678 592.428 704.021 597.086 704.021 602.83C704.021 608.574 708.678 613.231 714.422 613.231C720.166 613.231 724.824 608.574 724.824 602.83Z" fill="#0582C1"/>
    <path d="M909.257 798.455H792.952L810.743 755.33V755.305L817.897 737.904L819.869 733.135L823.082 725.372L823.738 723.79L830.895 706.389L832.21 703.226L844.889 672.44C847.177 666.889 855.037 666.889 857.325 672.44L870.004 703.226L871.319 706.389L878.473 723.79L879.13 725.372L882.343 733.135L884.314 737.904L891.471 755.305V755.33L909.257 798.455Z" fill="#FFBF4D"/>
    <path opacity="0.29" d="M800.576 779.965L792.957 798.453H909.27L901.648 779.965H800.576Z" fill="#F98D2B"/>
    <path d="M916.869 787.4H783.659V806.231H916.869V787.4Z" fill="#79C9E8"/>
    <path d="M916.867 787.4H888.087V806.231H916.867V787.4Z" fill="#49B4D6"/>
    <path opacity="0.29" d="M904.682 787.393H888.231L875.014 755.34V755.315L867.861 737.914L865.889 733.145L862.676 725.382L862.02 723.8L854.866 706.399L853.55 703.236L842.89 677.318L844.887 672.452C847.175 666.902 855.035 666.902 857.322 672.452L870.002 703.239L871.317 706.402L878.471 723.803L879.127 725.384L882.34 733.147L884.312 737.917L891.468 755.318V755.343L904.682 787.393Z" fill="#F98D2B"/>
    <path d="M878.471 723.79H823.738L830.892 706.389H871.317L878.471 723.79Z" fill="#0582C1"/>
    <path d="M891.468 755.306V755.33H810.741V755.306L817.897 737.904H884.312L891.468 755.306Z" fill="#0582C1"/>
    <path d="M878.471 723.79H862.02L854.866 706.389H871.317L878.471 723.79Z" fill="#00668E"/>
    <path d="M891.468 755.306V755.33H875.015V755.306L867.861 737.904H884.312L891.468 755.306Z" fill="#00668E"/>
    <path d="M167.885 375.569C176.576 375.569 184.13 369.258 185.304 360.65C185.515 359.105 185.622 357.529 185.622 355.928C185.622 336.758 170.081 321.22 150.911 321.22C150.126 321.22 149.347 321.254 148.574 321.307C146.99 302.404 131.155 287.554 111.842 287.554C91.4767 287.554 74.9707 304.062 74.9707 324.427C74.9707 325.33 75.0154 326.223 75.0776 327.11C69.2987 323.883 62.5625 322.157 55.4011 322.485C36.8809 323.333 21.6629 338.148 20.3525 356.644C20.3425 356.79 20.3326 356.937 20.3251 357.084C19.7283 367.142 27.8595 375.577 37.9352 375.577H167.885V375.569Z" fill="#D7F0F9"/>
    <path d="M996.256 402.832C1023.7 402.832 1025.22 361.525 997.808 360.192C997.059 360.155 996.306 360.137 995.547 360.137C990.654 360.137 985.942 360.913 981.52 362.333C977.85 339.974 958.447 322.913 935.051 322.913C911.14 322.913 891.404 340.734 888.367 363.82C882.693 361.1 876.34 359.575 869.626 359.575C865.876 359.575 862.238 360.05 858.767 360.946C834.766 367.127 839.804 402.835 864.588 402.835H996.256V402.832Z" fill="#D7F0F9"/>
    <path d="M666.64 199.307C694.079 199.307 695.599 158.012 668.191 156.679C667.443 156.642 666.69 156.624 665.931 156.624C661.04 156.624 656.328 157.4 651.909 158.82C648.241 136.468 628.843 119.412 605.454 119.412C581.551 119.412 561.82 137.229 558.786 160.307C553.114 157.586 546.761 156.062 540.049 156.062C536.302 156.062 532.664 156.537 529.195 157.43C505.202 163.609 510.238 199.307 535.014 199.307H666.64Z" fill="#D7F0F9"/>
    <path d="M229.771 275.633C266.102 275.633 295.555 246.181 295.555 209.85C295.555 173.519 266.102 144.067 229.771 144.067C193.441 144.067 163.988 173.519 163.988 209.85C163.988 246.181 193.441 275.633 229.771 275.633Z" fill="#FFBF4D"/>
    <path d="M230.311 144.079C248.202 155.836 260.023 176.074 260.023 199.08C260.023 235.412 230.572 264.863 194.24 264.863C194.059 264.863 193.88 264.851 193.701 264.851C204.06 271.659 216.448 275.63 229.771 275.63C266.103 275.63 295.555 246.179 295.555 209.847C295.555 173.7 266.392 144.373 230.311 144.079Z" fill="#FF9F50"/>
    <defs>
        <linearGradient id="paint0_linear_2_182" x1="590.25" y1="726.514" x2="590.25" y2="666.701" gradientUnits="userSpaceOnUse">
            <stop stop-color="white"/>
            <stop offset="1" stop-color="white" stop-opacity="0"/>
        </linearGradient>
    </defs>
</svg>
